HIERARCHY
ROOT RootJoint
{
	OFFSET 0.000000 0.000000 0.000000
	CHANNELS 6 Xposition Yposition Zposition Xrotation Yrotation Zrotation
	JOINT lHip
	{
		OFFSET 0.100000 -0.000000 -0.051395
		CHANNELS 3 Xrotation Yrotation Zrotation
		JOINT lKnee
		{
			OFFSET 0.000000 -0.000000 -0.410000
			CHANNELS 3 Xrotation Yrotation Zrotation
			JOINT lAnkle
			{
				OFFSET 0.000000 -0.000000 -0.390000
				CHANNELS 3 Xrotation Yrotation Zrotation
				JOINT lToeJoint
				{
					OFFSET 0.000000 -0.130000 -0.050000
					CHANNELS 3 Xrotation Yrotation Zrotation
					End Site
					{
						OFFSET 0.010000 -0.060000 0.002000
					}
				}
			}
		}
	}
	JOINT rHip
	{
		OFFSET -0.100000 -0.000000 -0.051395
		CHANNELS 3 Xrotation Yrotation Zrotation
		JOINT rKnee
		{
			OFFSET 0.000000 -0.000000 -0.410000
			CHANNELS 3 Xrotation Yrotation Zrotation
			JOINT rAnkle
			{
				OFFSET 0.000000 -0.000000 -0.390000
				CHANNELS 3 Xrotation Yrotation Zrotation
				JOINT rToeJoint
				{
					OFFSET 0.000000 -0.130000 -0.050000
					CHANNELS 3 Xrotation Yrotation Zrotation
					End Site
					{
						OFFSET -0.010000 -0.060000 0.002000
					}
				}
			}
		}
	}
	JOINT pelvis_lowerback
	{
		OFFSET 0.000000 0.000000 0.093605
		CHANNELS 3 Xrotation Yrotation Zrotation
		JOINT lowerback_torso
		{
			OFFSET 0.000000 0.000000 0.100000
			CHANNELS 3 Xrotation Yrotation Zrotation
			JOINT torso_head
			{
				OFFSET 0.000000 0.000000 0.282350
				CHANNELS 3 Xrotation Yrotation Zrotation
				End Site
				{
					OFFSET 0.000000 0.000000 0.192650
				}
			}
			JOINT lTorso_Clavicle
			{
				OFFSET 0.001000 0.000000 0.157500
				CHANNELS 3 Xrotation Yrotation Zrotation
				JOINT lShoulder
				{
					OFFSET 0.117647 0.000000 0.000000
					CHANNELS 3 Xrotation Yrotation Zrotation
					JOINT lElbow
					{
						OFFSET 0.245000 0.000000 0.000000
						CHANNELS 3 Xrotation Yrotation Zrotation
						JOINT lWrist
						{
							OFFSET 0.240000 0.000000 0.000000
							CHANNELS 3 Xrotation Yrotation Zrotation
							End Site
							{
								OFFSET 0.116353 -0.000000 -0.002500
							}
						}
					}
				}
			}
			JOINT rTorso_Clavicle
			{
				OFFSET -0.001000 0.000000 0.157500
				CHANNELS 3 Xrotation Yrotation Zrotation
				JOINT rShoulder
				{
					OFFSET -0.117647 0.000000 0.000000
					CHANNELS 3 Xrotation Yrotation Zrotation
					JOINT rElbow
					{
						OFFSET -0.245000 0.000000 0.000000
						CHANNELS 3 Xrotation Yrotation Zrotation
						JOINT rWrist
						{
							OFFSET -0.240000 0.000000 0.000000
							CHANNELS 3 Xrotation Yrotation Zrotation
							End Site
							{
								OFFSET -0.116353 -0.000000 -0.002500
							}
						}
					}
				}
			}
		}
	}
}
MOTION
Frames: 13
Frame Time: 0.041667
1.418128 -1.673873 0.910539 0.327256 -0.483740 -81.484949 -0.035227 1.348815 15.944289 -1.633085 -3.129085 5.450039 0.617630 1.367536 4.273533 -0.000004 -0.000002 -0.000003 -1.191541 -1.569373 -4.585599 0.298036 1.091613 0.005253 0.599245 0.746559 -0.053684 0.000001 0.000000 0.000002 0.281856 -0.517462 -0.415116 1.111166 -2.025057 -1.711151 8.815188 2.283721 5.220039 0.767520 14.286254 -0.507591 47.586116 34.499682 -48.388185 -2.566993 -1.563419 -17.028473 2.957544 5.909909 2.741279 -1.740608 -16.572715 -0.288858 45.608308 -46.465258 39.250734 -2.133572 4.332768 19.884556 6.593133 -0.632113 -0.383045 
1.417854 -1.673838 0.910510 0.318708 -0.477635 -81.409680 -0.010523 1.348814 15.909647 -1.647485 -3.117212 5.427145 0.618347 1.369951 4.257520 -0.000005 -0.000002 -0.000005 -1.162141 -1.576814 -4.621440 0.305473 1.113603 -0.018070 0.571070 0.746056 -0.071283 0.000001 0.000000 0.000002 0.279986 -0.516980 -0.410264 1.103646 -2.020812 -1.691396 8.851184 2.300426 5.276039 0.764847 14.300636 -0.491004 47.584357 34.489136 -48.331487 -2.539629 -1.542940 -16.892468 2.997748 5.808795 2.759983 -1.738840 -16.572037 -0.282176 45.601778 -46.451895 39.242131 -2.133360 4.340076 19.861157 6.582864 -0.620005 -0.405031 
1.417607 -1.673847 0.910484 0.309582 -0.472370 -81.347478 0.016404 1.353912 15.888927 -1.668846 -3.107013 5.403191 0.620619 1.371246 4.241162 -0.000005 0.000000 -0.000002 -1.137540 -1.576770 -4.669785 0.314541 1.129242 -0.025758 0.545110 0.744593 -0.077640 -0.000001 -0.000000 -0.000000 0.278944 -0.516483 -0.406178 1.096341 -2.015257 -1.674585 8.899523 2.312962 5.317193 0.762414 14.314314 -0.475814 47.573791 34.500976 -48.272622 -2.512550 -1.522115 -16.758173 3.060049 5.719945 2.764333 -1.737684 -16.567614 -0.279571 45.561829 -46.453312 39.204746 -2.134148 4.342870 19.856017 6.594638 -0.610825 -0.412243 
1.417371 -1.673867 0.910460 0.300741 -0.467516 -81.289100 0.043128 1.359866 15.869707 -1.690926 -3.097192 5.380547 0.622594 1.372134 4.225699 -0.000004 0.000001 -0.000003 -1.114473 -1.574884 -4.722189 0.323587 1.142647 -0.028506 0.520153 0.743003 -0.080409 0.000002 -0.000000 0.000001 0.278101 -0.516005 -0.402485 1.089082 -2.009804 -1.659370 8.950262 2.324355 5.355244 0.760176 14.327304 -0.461716 47.561592 34.519933 -48.213639 -2.486134 -1.501314 -16.627652 3.124812 5.638108 2.765565 -1.736743 -16.562570 -0.278042 45.515742 -46.456928 39.161071 -2.135354 4.344937 19.855852 6.610017 -0.602743 -0.413272 
1.417162 -1.673908 0.910437 0.294046 -0.464055 -81.238625 0.066495 1.365465 15.844791 -1.710010 -3.087812 5.366149 0.621342 1.371900 4.215523 -0.000003 0.000000 0.000002 -1.095058 -1.570267 -4.784379 0.330885 1.150123 -0.019712 0.498467 0.741670 -0.074692 -0.000001 0.000001 0.000002 0.277515 -0.515639 -0.400186 1.081867 -2.006214 -1.649985 9.001858 2.333509 5.391124 0.758784 14.337238 -0.452230 47.549345 34.555686 -48.156245 -2.462909 -1.481208 -16.516144 3.181023 5.582589 2.763639 -1.736345 -16.557881 -0.278356 45.469304 -46.457895 39.111593 -2.137933 4.347494 19.864763 6.623214 -0.597759 -0.395058 
1.416959 -1.673954 0.910415 0.287742 -0.460851 -81.189591 0.089255 1.370991 15.818843 -1.728549 -3.078508 5.353252 0.619505 1.371461 4.206311 -0.000001 -0.000002 -0.000003 -1.076302 -1.565173 -4.848354 0.337864 1.156521 -0.008820 0.477370 0.740383 -0.067433 0.000000 -0.000000 0.000002 0.276975 -0.515296 -0.398141 1.074659 -2.002964 -1.641658 9.053604 2.342282 5.426605 0.757544 14.346609 -0.443582 47.537041 34.594485 -48.099131 -2.440303 -1.461195 -16.408097 3.235679 5.531859 2.761177 -1.736048 -16.553261 -0.279003 45.422817 -46.458370 39.061066 -2.140756 4.350136 19.875323 6.636006 -0.593334 -0.373347 
1.416793 -1.674003 0.910396 0.284743 -0.457659 -81.149546 0.105812 1.372641 15.773253 -1.735649 -3.068517 5.358043 0.611606 1.369843 4.208199 0.000000 0.000000 -0.000004 -1.058822 -1.563294 -4.881387 0.340898 1.160468 -0.008463 0.461199 0.739987 -0.067077 -0.000000 -0.000000 0.000002 0.276712 -0.515018 -0.397337 1.069862 -2.001289 -1.638449 9.101409 2.347751 5.475973 0.756311 14.357537 -0.434895 47.532833 34.627905 -48.054178 -2.424274 -1.440646 -16.344832 3.238347 5.534939 2.769193 -1.735719 -16.556655 -0.276287 45.376505 -46.448538 39.001958 -2.141774 4.349036 19.881530 6.619466 -0.602246 -0.343996 
1.416633 -1.674053 0.910375 0.281800 -0.454258 -81.111058 0.121801 1.374012 15.727289 -1.741242 -3.058406 5.364054 0.603033 1.368154 4.210812 -0.000001 0.000001 -0.000003 -1.041832 -1.561774 -4.908569 0.344671 1.165193 -0.010497 0.445066 0.739270 -0.068473 -0.000004 -0.000000 0.000002 0.276478 -0.514778 -0.396397 1.065420 -1.999849 -1.634701 9.148489 2.353491 5.528121 0.755061 14.368920 -0.426016 47.529350 34.659566 -48.011155 -2.409130 -1.419914 -16.287716 3.233913 5.543694 2.779877 -1.735323 -16.560827 -0.272995 45.327990 -46.439791 38.940336 -2.142088 4.346822 19.885983 6.600261 -0.612033 -0.315701 
1.416497 -1.674100 0.910352 0.279168 -0.449691 -81.081169 0.134661 1.373910 15.679270 -1.738547 -3.047637 5.376777 0.590756 1.366094 4.217357 -0.000003 0.000001 -0.000013 -1.027537 -1.562176 -4.903549 0.352503 1.174193 -0.025699 0.429122 0.736777 -0.079507 0.000000 -0.000001 0.000001 0.276389 -0.514744 -0.394709 1.062928 -1.999699 -1.627998 9.191591 2.360553 5.595589 0.753726 14.382806 -0.416092 47.530057 34.681549 -47.978797 -2.398696 -1.398231 -16.264383 3.190440 5.583648 2.805274 -1.734576 -16.569262 -0.266551 45.267174 -46.437145 38.864729 -2.138503 4.338501 19.880799 6.566333 -0.626614 -0.293199 
1.416371 -1.674147 0.910327 0.276411 -0.444663 -81.054613 0.146752 1.373359 15.633772 -1.733613 -3.036593 5.390086 0.577608 1.364085 4.224198 -0.000003 -0.000002 -0.000004 -1.014669 -1.563040 -4.891532 0.362556 1.184405 -0.043076 0.412919 0.733638 -0.092204 -0.000000 -0.000000 0.000002 0.276345 -0.514794 -0.392613 1.060860 -2.000036 -1.619679 9.232438 2.369637 5.668216 0.752318 14.397178 -0.405703 47.532045 34.701544 -47.950964 -2.389852 -1.376874 -16.251344 3.136337 5.631157 2.835077 -1.733691 -16.578075 -0.259432 45.207181 -46.436762 38.788911 -2.134489 4.330286 19.872538 6.529582 -0.642006 -0.273885 
1.416266 -1.674198 0.910298 0.272655 -0.438256 -81.037900 0.157744 1.371856 15.604158 -1.724637 -3.024700 5.399902 0.563381 1.362752 4.228651 -0.000002 -0.000001 -0.000011 -1.006955 -1.564521 -4.873215 0.380760 1.197024 -0.059226 0.395083 0.728696 -0.104414 0.000001 0.000000 0.000002 0.276404 -0.515099 -0.389015 1.059183 -2.001756 -1.605410 9.264876 2.388328 5.753877 0.750612 14.411762 -0.393801 47.536880 34.720297 -47.937280 -2.384990 -1.358238 -16.261135 3.062916 5.689073 2.874292 -1.732420 -16.584691 -0.251754 45.163957 -46.442954 38.725861 -2.132094 4.328733 19.856946 6.491930 -0.657049 -0.266300 
1.416165 -1.674249 0.910269 0.268718 -0.431598 -81.022982 0.168535 1.370175 15.577431 -1.714928 -3.012650 5.409078 0.548963 1.361539 4.232672 -0.000003 0.000002 -0.000008 -1.000177 -1.566113 -4.853755 0.400450 1.210075 -0.075159 0.376953 0.723430 -0.116539 -0.000003 0.000001 0.000001 0.276479 -0.515451 -0.385140 1.057578 -2.003728 -1.590058 9.295765 2.408803 5.841898 0.748848 14.426381 -0.381623 47.542249 34.738813 -47.926187 -2.380850 -1.340101 -16.275077 2.985940 5.748842 2.915292 -1.731078 -16.590907 -0.243973 45.123757 -46.450330 38.665134 -2.129993 4.328397 19.840024 6.454122 -0.672032 -0.260851 
1.416093 -1.674298 0.910246 0.265948 -0.425668 -81.013687 0.177131 1.366833 15.570560 -1.706475 -2.999188 5.409723 0.538509 1.359653 4.230669 -0.000001 -0.000001 -0.000006 -0.996758 -1.567655 -4.853363 0.418058 1.216278 -0.080174 0.362712 0.720587 -0.120170 0.000002 -0.000001 0.000002 0.276676 -0.515865 -0.381068 1.056635 -2.006176 -1.573914 9.317566 2.436314 5.937968 0.747302 14.436276 -0.371726 47.539592 34.778381 -47.927591 -2.381430 -1.326427 -16.309800 2.938162 5.795409 2.949477 -1.730127 -16.596043 -0.238034 45.142793 -46.448900 38.650801 -2.134308 4.345416 19.818950 6.423768 -0.681757 -0.273182 
